<mxfile host="Electron" agent="Mozilla/5.0 (Windows NT 10.0; Win64; x64) AppleWebKit/537.36 (KHTML, like Gecko) draw.io/28.0.6 Chrome/138.0.7204.100 Electron/37.2.3 Safari/537.36" version="28.0.6">
  <diagram name="Page-1" id="pW9n2Ru3AKCmn2O22QE2">
    <mxGraphModel dx="772" dy="501" grid="1" gridSize="10" guides="1" tooltips="1" connect="1" arrows="1" fold="1" page="1" pageScale="1" pageWidth="827" pageHeight="1169" math="0" shadow="0">
      <root>
        <mxCell id="0" />
        <mxCell id="1" parent="0" />
        <mxCell id="Q1zWtYPhJRQyi1gEtcxc-1" value="Start" style="strokeWidth=2;html=1;shape=mxgraph.flowchart.start_1;whiteSpace=wrap;" parent="1" vertex="1">
          <mxGeometry x="280" y="10" width="100" height="60" as="geometry" />
        </mxCell>
        <mxCell id="Q1zWtYPhJRQyi1gEtcxc-2" value="Drive Boolean Expression (a &amp;amp; b)" style="rounded=1;whiteSpace=wrap;html=1;absoluteArcSize=1;arcSize=14;strokeWidth=2;" parent="1" vertex="1">
          <mxGeometry x="210" y="90" width="240" height="60" as="geometry" />
        </mxCell>
        <mxCell id="Q1zWtYPhJRQyi1gEtcxc-3" value="&lt;div&gt;Python simulation&amp;nbsp;&lt;/div&gt;&lt;div&gt;&amp;nbsp;Accept A,B,C → compute&amp;nbsp; &amp;nbsp;&amp;nbsp;&lt;/div&gt;&lt;div&gt;&amp;nbsp;Xa and Yb → print outputs&lt;/div&gt;" style="rounded=1;whiteSpace=wrap;html=1;absoluteArcSize=1;arcSize=14;strokeWidth=2;" parent="1" vertex="1">
          <mxGeometry x="210" y="250" width="240" height="60" as="geometry" />
        </mxCell>
        <mxCell id="Q1zWtYPhJRQyi1gEtcxc-4" value="Derive expressions&amp;nbsp;&lt;br&gt;&amp;nbsp;a) Circuit a → Xa&amp;nbsp; &amp;nbsp; &amp;nbsp; &amp;nbsp; &amp;nbsp;&lt;br&gt;&amp;nbsp;b) Circuit b → Yb" style="rounded=1;whiteSpace=wrap;html=1;absoluteArcSize=1;arcSize=14;strokeWidth=2;" parent="1" vertex="1">
          <mxGeometry x="210" y="170" width="240" height="60" as="geometry" />
        </mxCell>
        <mxCell id="Q1zWtYPhJRQyi1gEtcxc-5" value="compare output&amp;nbsp;" style="strokeWidth=2;html=1;shape=mxgraph.flowchart.decision;whiteSpace=wrap;" parent="1" vertex="1">
          <mxGeometry x="280" y="340" width="100" height="100" as="geometry" />
        </mxCell>
        <mxCell id="Q1zWtYPhJRQyi1gEtcxc-7" value="Equivalent&amp;nbsp;&lt;div&gt;(yes)&lt;/div&gt;" style="shape=parallelogram;html=1;strokeWidth=2;perimeter=parallelogramPerimeter;whiteSpace=wrap;rounded=1;arcSize=12;size=0.23;" parent="1" vertex="1">
          <mxGeometry x="130" y="360" width="100" height="60" as="geometry" />
        </mxCell>
        <mxCell id="Q1zWtYPhJRQyi1gEtcxc-9" value="End" style="strokeWidth=2;html=1;shape=mxgraph.flowchart.start_1;whiteSpace=wrap;" parent="1" vertex="1">
          <mxGeometry x="280" y="470" width="100" height="60" as="geometry" />
        </mxCell>
        <mxCell id="Q1zWtYPhJRQyi1gEtcxc-10" value="" style="endArrow=classic;html=1;rounded=0;exitX=0.5;exitY=1;exitDx=0;exitDy=0;exitPerimeter=0;entryX=0.5;entryY=0;entryDx=0;entryDy=0;" parent="1" source="Q1zWtYPhJRQyi1gEtcxc-1" target="Q1zWtYPhJRQyi1gEtcxc-2" edge="1">
          <mxGeometry width="50" height="50" relative="1" as="geometry">
            <mxPoint x="380" y="260" as="sourcePoint" />
            <mxPoint x="430" y="210" as="targetPoint" />
          </mxGeometry>
        </mxCell>
        <mxCell id="Q1zWtYPhJRQyi1gEtcxc-11" value="" style="endArrow=classic;html=1;rounded=0;exitX=0.5;exitY=1;exitDx=0;exitDy=0;entryX=0.5;entryY=0;entryDx=0;entryDy=0;" parent="1" source="Q1zWtYPhJRQyi1gEtcxc-2" target="Q1zWtYPhJRQyi1gEtcxc-4" edge="1">
          <mxGeometry width="50" height="50" relative="1" as="geometry">
            <mxPoint x="380" y="260" as="sourcePoint" />
            <mxPoint x="430" y="210" as="targetPoint" />
          </mxGeometry>
        </mxCell>
        <mxCell id="Q1zWtYPhJRQyi1gEtcxc-12" value="" style="endArrow=classic;html=1;rounded=0;exitX=0.5;exitY=1;exitDx=0;exitDy=0;entryX=0.5;entryY=0;entryDx=0;entryDy=0;" parent="1" source="Q1zWtYPhJRQyi1gEtcxc-4" target="Q1zWtYPhJRQyi1gEtcxc-3" edge="1">
          <mxGeometry width="50" height="50" relative="1" as="geometry">
            <mxPoint x="380" y="260" as="sourcePoint" />
            <mxPoint x="430" y="210" as="targetPoint" />
          </mxGeometry>
        </mxCell>
        <mxCell id="Q1zWtYPhJRQyi1gEtcxc-13" value="" style="endArrow=classic;html=1;rounded=0;entryX=0.5;entryY=0;entryDx=0;entryDy=0;entryPerimeter=0;" parent="1" target="Q1zWtYPhJRQyi1gEtcxc-5" edge="1">
          <mxGeometry width="50" height="50" relative="1" as="geometry">
            <mxPoint x="330" y="311" as="sourcePoint" />
            <mxPoint x="430" y="210" as="targetPoint" />
          </mxGeometry>
        </mxCell>
        <mxCell id="Q1zWtYPhJRQyi1gEtcxc-14" value="" style="endArrow=classic;html=1;rounded=0;exitX=1;exitY=0.5;exitDx=0;exitDy=0;exitPerimeter=0;entryX=0;entryY=0.5;entryDx=0;entryDy=0;" parent="1" source="Q1zWtYPhJRQyi1gEtcxc-5" edge="1">
          <mxGeometry width="50" height="50" relative="1" as="geometry">
            <mxPoint x="380" y="560" as="sourcePoint" />
            <mxPoint x="451.5" y="390" as="targetPoint" />
          </mxGeometry>
        </mxCell>
        <mxCell id="Q1zWtYPhJRQyi1gEtcxc-15" value="" style="endArrow=classic;html=1;rounded=0;exitX=0;exitY=0.5;exitDx=0;exitDy=0;exitPerimeter=0;" parent="1" source="Q1zWtYPhJRQyi1gEtcxc-5" target="Q1zWtYPhJRQyi1gEtcxc-7" edge="1">
          <mxGeometry width="50" height="50" relative="1" as="geometry">
            <mxPoint x="380" y="560" as="sourcePoint" />
            <mxPoint x="430" y="510" as="targetPoint" />
          </mxGeometry>
        </mxCell>
        <mxCell id="Q1zWtYPhJRQyi1gEtcxc-16" value="" style="endArrow=classic;html=1;rounded=0;exitX=0.347;exitY=1.011;exitDx=0;exitDy=0;exitPerimeter=0;entryX=0;entryY=0.5;entryDx=0;entryDy=0;entryPerimeter=0;" parent="1" source="Q1zWtYPhJRQyi1gEtcxc-7" target="Q1zWtYPhJRQyi1gEtcxc-9" edge="1">
          <mxGeometry width="50" height="50" relative="1" as="geometry">
            <mxPoint x="380" y="560" as="sourcePoint" />
            <mxPoint x="430" y="510" as="targetPoint" />
            <Array as="points">
              <mxPoint x="165" y="500" />
            </Array>
          </mxGeometry>
        </mxCell>
        <mxCell id="Q1zWtYPhJRQyi1gEtcxc-17" value="" style="endArrow=classic;html=1;rounded=0;exitX=0.4;exitY=1.056;exitDx=0;exitDy=0;exitPerimeter=0;entryX=1;entryY=0.5;entryDx=0;entryDy=0;entryPerimeter=0;" parent="1" target="Q1zWtYPhJRQyi1gEtcxc-9" edge="1">
          <mxGeometry width="50" height="50" relative="1" as="geometry">
            <mxPoint x="480" y="423.36" as="sourcePoint" />
            <mxPoint x="430" y="510" as="targetPoint" />
            <Array as="points">
              <mxPoint x="480" y="500" />
            </Array>
          </mxGeometry>
        </mxCell>
        <mxCell id="Q1zWtYPhJRQyi1gEtcxc-18" value="Equivalent&amp;nbsp;&lt;div&gt;(No)&lt;/div&gt;" style="shape=parallelogram;html=1;strokeWidth=2;perimeter=parallelogramPerimeter;whiteSpace=wrap;rounded=1;arcSize=12;size=0.23;" parent="1" vertex="1">
          <mxGeometry x="440" y="360" width="100" height="60" as="geometry" />
        </mxCell>
      </root>
    </mxGraphModel>
  </diagram>
</mxfile>
